<?xml version="1.0" encoding="UTF-8" standalone="no"?>
<!-- Created with Inkscape (http://www.inkscape.org/) -->

<svg
   width="41.681427mm"
   height="55.211357mm"
   viewBox="0 0 41.681427 55.211357"
   version="1.1"
   id="svg5"
   xml:space="preserve"
   inkscape:version="1.2.2 (b0a8486541, 2022-12-01)"
   sodipodi:docname="logo_small.svg"
   xmlns:inkscape="http://www.inkscape.org/namespaces/inkscape"
   xmlns:sodipodi="http://sodipodi.sourceforge.net/DTD/sodipodi-0.dtd"
   xmlns="http://www.w3.org/2000/svg"
   xmlns:svg="http://www.w3.org/2000/svg"><sodipodi:namedview
     id="namedview7"
     pagecolor="#ffffff"
     bordercolor="#000000"
     borderopacity="0.25"
     inkscape:showpageshadow="2"
     inkscape:pageopacity="0.0"
     inkscape:pagecheckerboard="0"
     inkscape:deskcolor="#d1d1d1"
     inkscape:document-units="mm"
     showgrid="false"
     inkscape:zoom="0.4128991"
     inkscape:cx="140.47015"
     inkscape:cy="455.31705"
     inkscape:window-width="1920"
     inkscape:window-height="1004"
     inkscape:window-x="1366"
     inkscape:window-y="0"
     inkscape:window-maximized="1"
     inkscape:current-layer="layer1" /><defs
     id="defs2" /><g
     inkscape:label="Layer 1"
     inkscape:groupmode="layer"
     id="layer1"
     transform="translate(-294.78358,20.152185)"><path
       style="fill:#000000;stroke-width:0.0846667"
       d="m 294.80907,27.820216 v -7.239 l 6.9215,-0.0021 c 3.80682,-0.0011 7.13105,-0.02349 7.38716,-0.04969 0.7658,-0.07833 2.08813,-0.363086 2.91081,-0.626823 1.05229,-0.337348 2.80467,-1.228027 3.77786,-1.920168 1.01546,-0.722205 2.41306,-2.124012 3.15277,-3.162271 1.17819,-1.653705 2.12035,-3.883944 2.42072,-5.7302068 l 0.14151,-0.86984 7.2711,-1.69e-4 7.2711,-1.69e-4 -0.0578,0.6985 c -0.67608,8.1702188 -4.95565,15.8821538 -11.4364,20.6087808 -3.54773,2.587481 -7.89861,4.453941 -11.98208,5.140139 -2.21933,0.372939 -2.68171,0.390347 -10.39109,0.391143 l -7.38716,8.29e-4 z m 0.0259,-21.1031658 c 0.127,-3.716616 1.18147,-7.69792899 2.9978,-11.318733 2.31483,-4.614515 6.10611,-8.7253282 10.48808,-11.3720022 2.89885,-1.75088 6.44659,-3.117592 9.60218,-3.699091 2.27267,-0.418799 2.12225,-0.412436 10.56217,-0.446859 l 7.97983,-0.03255 v 7.239982 7.2399832 l -7.64117,0.02838 -7.64116,0.02838 -0.90492,0.223384 c -2.00712,0.495468 -3.31447,1.063428 -4.97942,2.163234 -1.16287,0.768148 -2.5414,2.113445 -3.40774,3.32557501 -1.37112,1.91839599 -2.38271,4.54252699 -2.56026,6.64148199 -0.0276,0.325967 -0.0704,0.792692 -0.0952,1.037167 l -0.045,0.4445 h -7.20328 -7.20329 z"
       id="path1308"
       sodipodi:nodetypes="cccssssscccssscccssssscccccssssccccs" /></g></svg>
